<svg width="21" height="21" viewBox="0 0 21 21" fill="none" xmlns="http://www.w3.org/2000/svg">
<path d="M6.755 14.399L8.29588 13.9545L17.5735 4.56575C17.6467 4.49076 17.6874 4.38999 17.6869 4.28521C17.6864 4.18044 17.6448 4.08005 17.5709 4.00575L17.0152 3.444C16.9793 3.40711 16.9365 3.37774 16.8891 3.3576C16.8417 3.33747 16.7908 3.32697 16.7393 3.32673C16.6878 3.32648 16.6368 3.33649 16.5892 3.35618C16.5417 3.37586 16.4985 3.40483 16.4622 3.44138L7.20913 12.8056L6.75412 14.3981L6.755 14.399ZM18.1151 2.331L18.6707 2.89363C19.4373 3.66975 19.4443 4.92188 18.6847 5.69013L9.1245 15.3659L5.831 16.3144C5.62992 16.3707 5.41473 16.3449 5.23264 16.2427C5.05056 16.1405 4.91645 15.9702 4.85975 15.7693C4.81756 15.6248 4.81695 15.4713 4.858 15.3265L5.81612 11.9665L15.351 2.31613C15.5323 2.13357 15.7481 1.98893 15.9859 1.89066C16.2237 1.79239 16.4787 1.74245 16.736 1.74375C16.9933 1.74506 17.2477 1.79758 17.4845 1.89825C17.7213 1.99893 17.9357 2.14574 18.1151 2.33013V2.331ZM8.036 3.33988C8.47 3.33988 8.82175 3.696 8.82175 4.13525C8.82244 4.23909 8.80266 4.34204 8.76354 4.43822C8.72441 4.53441 8.66671 4.62194 8.59374 4.69581C8.52076 4.76968 8.43394 4.82844 8.33824 4.86873C8.24254 4.90902 8.13984 4.93006 8.036 4.93063H4.893C4.025 4.93063 3.3215 5.64288 3.3215 6.5205V16.0633C3.3215 16.9418 4.025 17.654 4.893 17.654H14.322C15.19 17.654 15.8944 16.9418 15.8944 16.0633V12.8826C15.8944 12.4434 16.2461 12.0873 16.6801 12.0873C17.1141 12.0873 17.4659 12.4434 17.4659 12.8835V16.0633C17.4659 17.8203 16.058 19.2448 14.322 19.2448H4.893C3.157 19.2448 1.75 17.8203 1.75 16.0633V6.5205C1.75 4.76438 3.157 3.33988 4.893 3.33988H8.036Z" fill="black"/>
</svg>
